<svg width="39" height="38" viewBox="0 0 39 38" fill="none" xmlns="http://www.w3.org/2000/svg">
<path fill-rule="evenodd" clip-rule="evenodd" d="M2.48245 0.609215C2.0753 -0.0150638 1.22009 -0.191364 0.609358 0.229345C-0.0149499 0.636483 -0.191424 1.49148 0.229305 2.10219L2.82175 5.99714L6.74388 20.7083C7.7482 24.4947 11.1954 27.1411 15.1176 27.1411H32.5713C33.3177 27.1411 33.9284 26.5304 33.9284 25.784C33.9284 25.0376 33.3177 24.4269 32.5713 24.4269H15.1176C12.9869 24.4269 11.0599 23.2869 10.0013 21.5226L32.9377 19.1884C34.7156 19.0119 36.1541 17.7091 36.5206 15.972L37.9728 8.96917C38.5021 6.44491 36.5614 4.06996 33.9828 4.06996H4.80319L2.48245 0.609215ZM9.06463 18.8898L5.83467 6.78421H33.9828C34.8514 6.78421 35.4892 7.57128 35.3128 8.4127L33.8605 15.4155C33.7384 15.9991 33.2635 16.4334 32.6663 16.4877L9.06463 18.8898Z" fill="#1B3762"/>
<path fill-rule="evenodd" clip-rule="evenodd" d="M8.14258 33.9286C8.14258 31.6757 9.96121 29.8572 12.2141 29.8572C14.4671 29.8572 16.2857 31.6757 16.2857 33.9286C16.2857 36.1814 14.4671 37.9999 12.2141 37.9999C9.96121 37.9999 8.14258 36.1814 8.14258 33.9286ZM12.2141 32.5714C11.4677 32.5714 10.857 33.1821 10.857 33.9286C10.857 34.675 11.4677 35.2857 12.2141 35.2857C12.9606 35.2857 13.5713 34.675 13.5713 33.9286C13.5713 33.1821 12.9606 32.5714 12.2141 32.5714Z" fill="#1B3762"/>
<path fill-rule="evenodd" clip-rule="evenodd" d="M25.7871 33.9288C25.7871 31.676 27.6057 29.8574 29.8587 29.8574C32.1116 29.8574 33.9303 31.676 33.9303 33.9288C33.9303 36.1816 32.1116 38.0002 29.8587 38.0002C27.6057 38.0002 25.7871 36.1816 25.7871 33.9288ZM29.8587 32.5717C29.1122 32.5717 28.5015 33.1824 28.5015 33.9288C28.5015 34.6752 29.1122 35.2859 29.8587 35.2859C30.6051 35.2859 31.2159 34.6752 31.2159 33.9288C31.2159 33.1824 30.6051 32.5717 29.8587 32.5717Z" fill="#1B3762"/>
</svg>
