<svg width="45" height="38" viewBox="0 0 45 38" fill="none" xmlns="http://www.w3.org/2000/svg">
<path d="M30.0827 1.58333C30.0827 0.7125 29.3733 0 28.4993 0C27.6253 0 26.916 0.7125 26.916 1.58333V26.9167C26.916 27.7875 27.6253 28.5 28.4993 28.5C29.3733 28.5 30.0827 27.7875 30.0827 26.9167V1.58333Z" fill="#1B3762"/>
<path d="M17.4167 10.0227C17.4167 9.15183 16.7073 8.43933 15.8333 8.43933C14.9593 8.43933 14.25 9.15183 14.25 10.0227V26.9169C14.25 27.7877 14.9593 28.5002 15.8333 28.5002C16.7073 28.5002 17.4167 27.7877 17.4167 26.9169V10.0227Z" fill="#1B3762"/>
<path d="M3.16732 16.8945C4.04132 16.8945 4.75065 17.5912 4.75065 18.4779V26.917C4.75065 27.7878 4.04132 28.5003 3.16732 28.5003C2.29332 28.5003 1.58398 27.7878 1.58398 26.917V18.4779C1.58398 17.5912 2.29332 16.8945 3.16732 16.8945Z" fill="#1B3762"/>
<path d="M0 36.4173C0 35.5465 0.709333 34.834 1.58333 34.834H42.75C43.624 34.834 44.3333 35.5465 44.3333 36.4173C44.3333 37.2882 43.624 38.0007 42.75 38.0007H1.58333C0.709333 38.0007 0 37.2882 0 36.4173Z" fill="#1B3762"/>
<path d="M41.1673 8.43945C42.0413 8.43945 42.7507 9.15195 42.7507 10.0228V26.917C42.7507 27.7879 42.0413 28.5004 41.1673 28.5004C40.2933 28.5004 39.584 27.7879 39.584 26.917V10.0228C39.584 9.15195 40.2933 8.43945 41.1673 8.43945Z" fill="#1B3762"/>
</svg>
