<svg width="38" height="38" viewBox="0 0 38 38" fill="none" xmlns="http://www.w3.org/2000/svg">
<path fill-rule="evenodd" clip-rule="evenodd" d="M21.7143 0C24.9986 0 27.74 2.33157 28.3643 5.42857H31.2143C34.96 5.42857 38 8.46721 38 12.2143V31.2143C38 34.96 34.96 38 31.2143 38H6.78571C3.04 38 0 34.96 0 31.2143V12.2143C0 8.46721 3.04 5.42857 6.78571 5.42857H9.63568C10.26 2.33157 13.0014 0 16.2857 0H21.7143ZM21.7143 2.71429C23.4921 2.71429 24.9985 3.8475 25.5549 5.42857H12.4451C13.0015 3.8475 14.5079 2.71429 16.2857 2.71429H21.7143ZM35.2857 12.2143C35.2857 9.9655 33.4671 8.14286 31.2143 8.14286H6.78571C4.53286 8.14286 2.71429 9.9655 2.71429 12.2143V19H14.3043C15.2408 17.3769 16.9914 16.2857 19 16.2857C21.0086 16.2857 22.7592 17.3769 23.6957 19H35.2857V12.2143ZM24.4286 21.7143C24.4286 24.7136 21.9993 27.1429 19 27.1429C16.0007 27.1429 13.5714 24.7136 13.5714 21.7143H2.71429V31.2143C2.71429 33.4671 4.53286 35.2857 6.78571 35.2857H31.2143C33.4671 35.2857 35.2857 33.4671 35.2857 31.2143V21.7143H24.4286ZM16.2857 21.7143C16.2857 20.2146 17.5071 19 19 19C20.4929 19 21.7143 20.2146 21.7143 21.7143C21.7143 23.2071 20.4929 24.4286 19 24.4286C17.5071 24.4286 16.2857 23.2071 16.2857 21.7143Z" fill="#1B3762"/>
</svg>
