<svg width="38" height="38" viewBox="0 0 38 38" fill="none" xmlns="http://www.w3.org/2000/svg">
<path fill-rule="evenodd" clip-rule="evenodd" d="M10.8571 0C11.6063 0 12.2143 0.610714 12.2143 1.35714V2.71429H25.7857V1.35714C25.7857 0.610714 26.3937 0 27.1429 0C27.892 0 28.5 0.610714 28.5 1.35714V2.71429H31.2143C34.9614 2.71429 38 5.75429 38 9.5V31.2143C38 34.96 34.9614 38 31.2143 38H6.78571C3.03864 38 0 34.96 0 31.2143V9.5C0 5.75429 3.03864 2.71429 6.78571 2.71429H9.5V1.35714C9.5 0.610714 10.108 0 10.8571 0ZM9.5 5.42857H6.78571C4.53693 5.42857 2.71429 7.24714 2.71429 9.5V12.2143H35.2857V9.5C35.2857 7.24714 33.4631 5.42857 31.2143 5.42857H28.5V6.78571C28.5 7.53214 27.892 8.14286 27.1429 8.14286C26.3937 8.14286 25.7857 7.53214 25.7857 6.78571V5.42857H12.2143V6.78571C12.2143 7.53214 11.6063 8.14286 10.8571 8.14286C10.108 8.14286 9.5 7.53214 9.5 6.78571V5.42857ZM35.2857 14.9286H2.71429V31.2143C2.71429 33.4671 4.53693 35.2857 6.78571 35.2857H31.2143C33.4631 35.2857 35.2857 33.4671 35.2857 31.2143V14.9286ZM8.14286 21.7143C8.14286 20.9679 8.75086 20.3571 9.5 20.3571H12.2143C12.9634 20.3571 13.5714 20.9679 13.5714 21.7143C13.5714 22.4607 12.9634 23.0714 12.2143 23.0714H9.5C8.75086 23.0714 8.14286 22.4607 8.14286 21.7143ZM16.2857 21.7143C16.2857 20.9679 16.8937 20.3571 17.6429 20.3571H20.3571C21.1063 20.3571 21.7143 20.9679 21.7143 21.7143C21.7143 22.4607 21.1063 23.0714 20.3571 23.0714H17.6429C16.8937 23.0714 16.2857 22.4607 16.2857 21.7143ZM24.4286 21.7143C24.4286 20.9679 25.0366 20.3571 25.7857 20.3571H28.5C29.2491 20.3571 29.8571 20.9679 29.8571 21.7143C29.8571 22.4607 29.2491 23.0714 28.5 23.0714H25.7857C25.0366 23.0714 24.4286 22.4607 24.4286 21.7143ZM8.14286 28.5C8.14286 27.7536 8.75086 27.1429 9.5 27.1429H12.2143C12.9634 27.1429 13.5714 27.7536 13.5714 28.5C13.5714 29.2464 12.9634 29.8571 12.2143 29.8571H9.5C8.75086 29.8571 8.14286 29.2464 8.14286 28.5ZM16.2857 28.5C16.2857 27.7536 16.8937 27.1429 17.6429 27.1429H20.3571C21.1063 27.1429 21.7143 27.7536 21.7143 28.5C21.7143 29.2464 21.1063 29.8571 20.3571 29.8571H17.6429C16.8937 29.8571 16.2857 29.2464 16.2857 28.5ZM24.4286 28.5C24.4286 27.7536 25.0366 27.1429 25.7857 27.1429H28.5C29.2491 27.1429 29.8571 27.7536 29.8571 28.5C29.8571 29.2464 29.2491 29.8571 28.5 29.8571H25.7857C25.0366 29.8571 24.4286 29.2464 24.4286 28.5Z" fill="#1B3762"/>
</svg>
