<svg width="38" height="38" viewBox="0 0 38 38" fill="none" xmlns="http://www.w3.org/2000/svg">
<path fill-rule="evenodd" clip-rule="evenodd" d="M33.5621 38C33.5757 38 33.5757 38 33.5893 38H33.6165C36.0593 37.9864 38 35.9642 38 33.5349V12.2143C38 9.77143 36.0457 7.74923 33.5893 7.74923H30.3729C29.45 7.74923 28.6764 6.98919 28.6764 6.01205C28.6764 2.71419 26.03 0 22.7321 0C19.4343 0 16.8014 2.71419 16.8014 6.01205C16.8014 6.98919 16.0143 7.74923 15.105 7.74923H12.0514C9.59501 7.74923 7.64072 9.77143 7.64072 12.2143V15.1184C7.64072 16.1091 6.85358 16.8692 5.94429 16.8692C2.63286 16.8692 0 19.5837 0 22.8816C0 26.1794 2.63286 28.8936 5.94429 28.8936C6.85358 28.8936 7.64072 29.6537 7.64072 30.6308V33.5349C7.64072 35.9914 9.59501 38 12.0514 38H18.1586C18.905 38 19.5157 37.3893 19.5157 36.6429V33.5349C19.5157 31.7028 20.9679 30.2508 22.7321 30.2508C24.4964 30.2508 25.9621 31.7028 25.9621 33.5349V36.6429C25.9621 37.3893 26.5593 38 27.3193 38H33.5621ZM33.6029 35.2857H28.6764V33.5349C28.6764 30.2371 26.03 27.5365 22.7321 27.5365C19.4343 27.5365 16.8014 30.2371 16.8014 33.5349V35.2857H12.0514C11.1286 35.2857 10.355 34.5257 10.355 33.5349V30.6308C10.355 28.1879 8.38715 26.1793 5.94429 26.1793C4.18001 26.1793 2.71429 24.7137 2.71429 22.8816C2.71429 21.0359 4.18001 19.5835 5.94429 19.5835C8.38715 19.5835 10.355 17.5613 10.355 15.1184V12.2143C10.355 11.2371 11.1286 10.4635 12.0514 10.4635H15.105C17.5479 10.4635 19.5157 8.45491 19.5157 6.01205C19.5157 4.16634 20.9679 2.71429 22.7321 2.71429C24.4964 2.71429 25.9621 4.16634 25.9621 6.01205C25.9621 8.45491 27.9164 10.4635 30.3729 10.4635H33.5893C34.4986 10.4635 35.2857 11.2371 35.2857 12.2143V33.5349C35.2857 34.5121 34.5122 35.2721 33.6029 35.2857Z" fill="#1B3762"/>
</svg>
