<svg width="32" height="38" viewBox="0 0 32 38" fill="none" xmlns="http://www.w3.org/2000/svg">
<path fill-rule="evenodd" clip-rule="evenodd" d="M8.04793 0.404393C8.30579 0.145178 8.6586 0 9.02503 0H17.6429C21.3886 0 24.4286 3.03864 24.4286 6.78571C28.1743 6.78571 31.2143 9.82436 31.2143 13.5714V31.2143C31.2143 34.9614 28.1743 38 24.4286 38H13.5714C9.82571 38 6.78571 34.9614 6.78571 31.2143C3.04 31.2143 0 28.1756 0 24.4286V9.12949C0 8.77256 0.135767 8.4306 0.393624 8.17682L8.04793 0.404393ZM21.7143 6.78571V24.4286C21.7143 26.6774 19.8957 28.5 17.6429 28.5H6.78571C4.53286 28.5 2.71429 26.6774 2.71429 24.4286V12.2143H10.8571C11.6036 12.2143 12.2143 11.6063 12.2143 10.8571V2.71429H17.6429C19.8957 2.71429 21.7143 4.53693 21.7143 6.78571ZM9.5 2.80383V9.5H2.90431L9.5 2.80383ZM13.5714 35.2857C11.3186 35.2857 9.5 33.4631 9.5 31.2143H17.6429C21.3886 31.2143 24.4286 28.1756 24.4286 24.4286V9.5C26.6814 9.5 28.5 11.3226 28.5 13.5714V31.2143C28.5 33.4631 26.6814 35.2857 24.4286 35.2857H13.5714Z" fill="#1B3762"/>
</svg>
